<svg width="1024" height="1024" viewBox="0 0 1024 1024" fill="none" xmlns="http://www.w3.org/2000/svg">
<path d="M787.471 511.003C787.471 474.828 780.345 439.008 766.501 405.587C752.657 372.166 732.366 341.799 706.786 316.221L706.784 316.22C681.206 290.64 650.84 270.348 617.419 256.504C583.998 242.66 548.177 235.535 512.003 235.535C475.828 235.535 440.008 242.66 406.587 256.504C373.166 270.348 342.799 290.64 317.221 316.22L317.22 316.221C291.64 341.799 271.348 372.166 257.504 405.587C243.66 439.008 236.535 474.828 236.535 511.003C236.535 547.177 243.66 582.998 257.504 616.419C271.348 649.84 291.64 680.206 317.22 705.784C331.617 720.18 331.617 743.523 317.221 757.92C302.824 772.317 279.483 772.317 265.086 757.921C232.659 725.496 206.936 687.001 189.387 644.635C171.837 602.268 162.805 556.86 162.805 511.003C162.805 465.146 171.837 419.737 189.387 377.371C206.936 335.005 232.659 296.51 265.086 264.085C297.511 231.659 336.005 205.936 378.371 188.387C420.737 170.837 466.146 161.805 512.003 161.805C557.86 161.805 603.268 170.837 645.635 188.387C688.001 205.936 726.495 231.658 758.92 264.085L760.435 265.608C792.148 297.713 817.343 335.667 834.618 377.371C852.168 419.737 861.2 465.146 861.2 511.003C861.2 556.86 852.168 602.268 834.618 644.635C817.069 687.001 791.347 725.496 758.92 757.921C744.523 772.317 721.18 772.317 706.784 757.92C692.388 743.523 692.389 720.18 706.786 705.784C732.366 680.206 752.657 649.839 766.501 616.419C780.345 582.998 787.471 547.177 787.471 511.003Z" fill="white" fill-opacity="0.12"/>
<path d="M137 511.003C137 461.757 146.701 412.992 165.547 367.495C184.393 321.998 212.017 280.658 246.84 245.837C281.661 211.015 322.999 183.393 368.495 164.547C413.992 145.701 462.757 136 512.003 136C561.249 136 610.013 145.701 655.51 164.547C700.976 183.381 742.291 210.979 777.098 245.77C807.693 276.27 832.789 311.829 851.275 350.876C866.086 382.159 852.733 419.524 821.45 434.335C790.167 449.146 752.801 435.793 737.99 404.51C725.683 378.515 708.976 354.842 688.607 334.536L688.537 334.466C665.355 311.282 637.833 292.892 607.543 280.345C577.253 267.798 544.789 261.34 512.003 261.34C479.217 261.34 446.753 267.798 416.463 280.345C386.173 292.892 358.651 311.282 335.469 334.466L335.466 334.469C312.282 357.651 293.892 385.173 281.345 415.463C268.798 445.753 262.34 478.217 262.34 511.003C262.34 543.789 268.798 576.253 281.345 606.543C293.892 636.833 312.282 664.355 335.466 687.537C359.941 712.011 359.942 751.691 335.469 776.166C310.995 800.641 271.315 800.642 246.84 776.169C212.017 741.348 184.393 700.008 165.547 654.511C146.701 609.013 137 560.249 137 511.003Z" fill="#A747FF" fill-opacity="0.24"/>
<path d="M162.805 511.003C162.805 465.146 171.837 419.737 189.387 377.371C206.936 335.005 232.659 296.51 265.086 264.085C297.511 231.659 336.005 205.936 378.371 188.387C420.737 170.837 466.146 161.805 512.003 161.805C557.86 161.805 603.268 170.837 645.635 188.387C687.983 205.929 726.463 231.637 758.88 264.045L760.212 265.38C788.099 293.482 811.007 326.127 827.952 361.918C836.664 380.32 828.81 402.299 810.408 411.012C792.006 419.724 770.026 411.869 761.313 393.468C747.734 364.786 729.3 338.666 706.825 316.261L706.784 316.22C681.206 290.64 650.84 270.348 617.419 256.504C583.998 242.66 548.177 235.535 512.003 235.535C475.828 235.535 440.008 242.66 406.587 256.504C373.166 270.348 342.799 290.64 317.221 316.22L317.22 316.221C291.64 341.799 271.348 372.166 257.504 405.587C243.66 439.008 236.535 474.828 236.535 511.003C236.535 547.177 243.66 582.998 257.504 616.419C271.348 649.84 291.64 680.206 317.22 705.784C331.617 720.18 331.617 743.523 317.221 757.92C302.824 772.317 279.483 772.317 265.086 757.921C232.659 725.496 206.936 687.001 189.387 644.635C171.837 602.268 162.805 556.86 162.805 511.003Z" fill="#B457FF"/>
<path d="M794.633 430.773C823.948 430.773 847.713 407.008 847.713 377.693C847.713 348.377 823.948 324.613 794.633 324.613C765.317 324.613 741.553 348.377 741.553 377.693C741.553 407.008 765.317 430.773 794.633 430.773Z" fill="#F8F4FF"/>
<path d="M512.003 377.963L533.003 489.963L645.003 510.963L533.003 531.963L512.003 643.963L491.003 531.963L379.003 510.963L491.003 489.963L512.003 377.963Z" fill="white"/>
<path d="M359.003 421.963L365.003 447.963L391.003 453.963L365.003 459.963L359.003 485.963L353.003 459.963L327.003 453.963L353.003 447.963L359.003 421.963Z" fill="white" fill-opacity="0.55"/>
<path d="M653.003 435.963L657.003 451.963L673.003 455.963L657.003 459.963L653.003 475.963L649.003 459.963L633.003 455.963L649.003 451.963L653.003 435.963Z" fill="white" fill-opacity="0.4"/>
</svg>
