<svg fill="none" height="130" viewBox="0 0 132 130" width="132" xmlns="http://www.w3.org/2000/svg"><path d="m50.3098 47.3198v-12.3501c0-1.0401.3905-1.8204 1.3-2.3398l24.8307-14.3c3.38-1.9499 7.4102-2.8595 11.5696-2.8595 15.5999 0 25.4809 12.0903 25.4809 24.9598 0 .9098 0 1.9499-.131 2.99l-25.7401-15.0803c-1.5598-.9095-3.1204-.9095-4.6801 0zm57.9802 48.1004v-29.5107c0-1.8204-.781-3.1203-2.34-4.0301l-32.6301-18.9799 10.66-6.1104c.9098-.5194 1.6901-.5194 2.5999 0l24.8302 14.3c7.151 4.1605 11.96 13 11.96 21.5795 0 9.8797-5.849 18.9801-15.08 22.7505zm-65.6501-25.9999-10.66-6.2396c-.9095-.5194-1.2999-1.3-1.2999-2.3401v-28.5998c0-13.9095 10.66-24.44028 25.0903-24.44028 5.4607 0 10.5296 1.82042 14.8207 5.07028l-25.6099 14.8205c-1.5595.9095-2.3398 2.2095-2.3398 4.0302v37.6999zm22.9453 13.2596-15.2754-8.5797v-18.1993l15.2754-8.5798 15.2743 8.5798v18.1993zm9.8149 39.5211c-5.4604 0-10.5293-1.821-14.8204-5.07l25.6097-14.821c1.5598-.91 2.34-2.21 2.34-4.0304v-37.6999l10.7906 6.2396c.91.5194 1.3 1.2997 1.3 2.3401v28.5998c0 13.9098-10.7906 24.4398-25.2199 24.4398zm-30.8103-28.9903-24.8307-14.2998c-7.1505-4.1607-11.95993-13-11.95993-21.5797 0-10.01 5.98013-18.9799 15.20953-22.7503v29.6399c0 1.8204.7806 3.1204 2.3401 4.0302l32.5007 18.8493-10.66 6.1104c-.9096.5194-1.6901.5194-2.5997 0zm-1.4291 21.3203c-14.6902 0-25.4805-11.05-25.4805-24.7005 0-1.0401.1303-2.0803.2596-3.1204l25.6099 14.8209c1.5595.909 3.1204.909 4.6799 0l32.6299-18.8497v12.3501c0 1.0401-.3901 1.8204-1.2999 2.3398l-24.8305 14.2998c-3.3802 1.95-7.4104 2.86-11.5698 2.86zm32.2394 15.469c15.7303 0 28.8599-11.18 31.8509-26 14.56-3.77 23.92-17.4205 23.92-31.3301 0-9.1004-3.9-17.9397-10.92-24.31.65-2.7302 1.04-5.4604 1.04-8.1893 0-18.5897-15.08-32.50067-32.5006-32.50067-3.5092 0-6.8894.51938-10.2696 1.6901-5.8509-5.72027-13.9109-9.36003-22.7505-9.36003-15.73 0-28.8593 11.1794-31.8504 25.9998-14.55987 3.7704-23.9199 17.4204-23.9199 31.33 0 9.1005 3.89958 17.9398 10.9198 24.31-.65 2.7302-1.04012 5.4605-1.04012 8.1896 0 18.5896 15.08032 32.5006 32.50042 32.5006 3.5094 0 6.8896-.52 10.2698-1.69 5.8495 5.72 13.9096 9.36 22.7502 9.36z" fill="#000"/></svg>