<svg fill="none" height="125" viewBox="0 0 127 125" width="127" xmlns="http://www.w3.org/2000/svg"><path d="m48.3749 45.4998v-11.8751c0-1.0001.3754-1.7504 1.2499-2.2498l23.8757-13.75c3.25-1.8749 7.1251-2.7495 11.1246-2.7495 14.9997 0 24.4999 11.6253 24.4999 23.9998 0 .8748 0 1.8749-.125 2.875l-24.7501-14.5003c-1.4998-.8745-3.0003-.8745-4.5001 0zm55.7501 46.2504v-28.3757c0-1.7504-.751-3.0003-2.25-3.8751l-31.3751-18.2499 10.25-5.8754c.8748-.4994 1.6251-.4994 2.4999 0l23.8752 13.75c6.876 4.0005 11.5 12.5 11.5 20.7495 0 9.4997-5.624 18.2502-14.5 21.8755zm-63.1251-24.9999-10.25-5.9997c-.8745-.4994-1.2499-1.2499-1.2499-2.25v-27.4998c0-13.3746 10.25-23.5003 24.1253-23.5003 5.2507 0 10.1247 1.7504 14.2507 4.8753l-24.625 14.2504c-1.4995.8746-2.2498 2.1245-2.2498 3.8752v36.25zm22.0628 12.7496-14.6878-8.2497v-17.4994l14.6878-8.2497 14.6868 8.2497v17.4994zm9.4374 38.0011c-5.2504 0-10.1244-1.751-14.2504-4.875l24.6247-14.2512c1.4998-.8745 2.2501-2.1245 2.2501-3.8752v-36.2499l10.3755 5.9997c.8746.4994 1.25 1.2497 1.25 2.25v27.4998c0 13.3748-10.3756 23.4998-24.2499 23.4998zm-29.6252-27.8754-23.8758-13.7497c-6.8755-4.0007-11.4999-12.5-11.4999-20.7498 0-9.625 5.7501-18.2499 14.6246-21.8752v28.4999c0 1.7504.7505 3.0003 2.25 3.8751l31.2507 18.1243-10.25 5.8754c-.8746.4995-1.6251.4995-2.4996 0zm-1.3743 20.5004c-14.1251 0-24.5004-10.6255-24.5004-23.7505 0-1.0002.1253-2.0003.2496-3.0004l24.6249 14.2505c1.4996.8748 3.0004.8748 4.4999 0l31.3749-18.1244v11.8751c0 1.0001-.3751 1.7504-1.2499 2.2498l-23.8755 13.7499c-3.2502 1.875-7.1253 2.75-11.1248 2.75zm30.9995 14.874c15.1253 0 27.7499-10.75 30.6259-25.0001 14-3.6253 23-16.7504 23-30.125 0-8.7504-3.75-17.2497-10.5-23.375.625-2.6252 1-5.2504 1-7.8743 0-17.8748-14.5-31.25067-31.2507-31.25067-3.3742 0-6.6243.49941-9.8745 1.6251-5.6259-5.50026-13.3759-9.00003-21.8755-9.00003-15.125 0-27.7493 10.7494-30.6254 24.9998-13.99987 3.6254-22.9999 16.7504-22.9999 30.125 0 8.7505 3.7496 17.2498 10.4998 23.375-.62496 2.6252-1.0001 5.2504-1.0001 7.8746 0 17.8746 14.5003 31.2506 31.2504 31.2506 3.3744 0 6.6246-.5 9.8748-1.625 5.6246 5.5 13.3746 9 21.8752 9z" fill="#000"/></svg>