<svg fill="none" height="125" viewBox="0 0 125 125" width="125" xmlns="http://www.w3.org/2000/svg"><path d="m54.375 118.75 1.75-7.75 2-10 1.625-8 1.5-9.875.875-3.25-.125-.25-.625.125-7.5 10.25-11.375 15.375-9 9.5-2.125.875-3.75-1.875.375-3.5 2.125-3 12.375-15.875 7.5-9.875 4.875-5.625-.125-.75h-.25l-33 21.5-5.875.75-2.625-2.375.375-3.875 1.25-1.25 9.875-6.875 24.625-13.75.375-1.25-.375-.625h-1.25l-4.125-.25-14-.375-12.125-.5-11.875-.625-3-.625-2.75-3.75.25-1.875 2.5-1.625 3.625.25 7.875.625 11.875.75 8.625.5 12.75 1.375h2l.25-.875-.625-.5-.5-.5-12.375-8.25-13.25-8.75-7-5.125-3.75-2.625-1.875-2.375-.75-5.25 3.375-3.75 4.625.375 1.125.25 4.625 3.625 9.875 7.625 13 9.625 1.875 1.5.875-.5v-.375l-.875-1.375-7-12.75-7.5-13-3.375-5.375-.875-3.25c-.3333-1.125-.5-2.375-.5-3.75l3.875-5.249994 2.125-.750006 5.25.750006 2.125 1.874994 3.25 7.375 5.125 11.625 8.125 15.75 2.375 4.75 1.25 4.25.5 1.375h.875v-.75l.625-9 1.25-10.875 1.25-14 .375-4 2-4.75 3.875-2.49999 3 1.37499 2.5 3.625-.375 2.25-1.375 9.625-3 15.125-1.875 10.25h1.125l1.25-1.375 5.125-6.75 8.625-10.75 3.75-4.25 4.5-4.75 2.875-2.25h5.375l3.875 5.875-1.75 6.125-5.5 7-4.625 5.875-6.625 8.875-4 7.125.375.5h.875l14.875-3.25 8.125-1.375 9.5-1.625 4.375 2 .5 2-1.75 4.25-10.25 2.5-12 2.375-17.875 4.25-.25.125.25.375 8 .75 3.5.25h8.5l15.75 1.125 4.125 2.75 2.375 3.25-.375 2.625-6.375 3.125-8.5-2-20-4.75-6.75-1.625h-1v.5l5.75 5.625 10.375 9.375 13.125 12.125.625 3-1.625 2.5-1.75-.25-11.5-8.75-4.5-3.875-10-8.375h-.625v.875l2.25 3.375 12.25 18.375.625 5.625-.875 1.75-3.25 1.125-3.375-.625-7.25-10-7.375-11.375-6-10.125-.625.5-3.625 37.75-1.625 1.875-3.75 1.5-3.125-2.375z" fill="#000"/></svg>